HIERARCHY
ROOT Hips
{
	OFFSET -3.958830 18.904000 13.208200
	CHANNELS 6 Xposition Yposition Zposition Zrotation Yrotation Xrotation 
	JOINT LHipJoint
	{
		OFFSET 0.000000 0.000000 0.000000
		CHANNELS 3 Zrotation Yrotation Xrotation
		JOINT LeftUpLeg
		{
			OFFSET 1.800000 -1.400000 0.085000
			CHANNELS 3 Zrotation Yrotation Xrotation
			JOINT LeftLeg
			{
				OFFSET 2.215000 -6.000000 0.000000
				CHANNELS 3 Zrotation Yrotation Xrotation
				JOINT LeftFoot
				{
					OFFSET 2.500000 -6.900000 0.000000
					CHANNELS 3 Zrotation Yrotation Xrotation
					JOINT LeftToeBase
					{
						OFFSET 0.200000 -0.500000 1.950000
						CHANNELS 3 Zrotation Yrotation Xrotation
						End Site
						{
							OFFSET 0.000000 0.000000 0.000000
						}
					}
				}
			}
		}
	}
	JOINT RHipJoint
	{
		OFFSET 0.000000 0.000000 0.000000
		CHANNELS 3 Zrotation Yrotation Xrotation
		JOINT RightUpLeg
		{
			OFFSET -1.800000 -1.400000 0.085000
			CHANNELS 3 Zrotation Yrotation Xrotation
			JOINT RightLeg
			{
				OFFSET -2.215000 -6.000000 0.000000
				CHANNELS 3 Zrotation Yrotation Xrotation
				JOINT RightFoot
				{
					OFFSET -2.500000 -6.900000 0.000000
					CHANNELS 3 Zrotation Yrotation Xrotation
					JOINT RightToeBase
					{
						OFFSET -0.200000 -0.500000 1.950000
						CHANNELS 3 Zrotation Yrotation Xrotation
						End Site
						{
							OFFSET 0.000000 0.000000 0.000000
						}
					}
				}
			}
		}
	}
	JOINT LowerBack
	{
		OFFSET 0.000000 0.000000 0.000000
		CHANNELS 3 Zrotation Yrotation Xrotation
		JOINT Spine
		{
			OFFSET -0.087000 1.940000 -0.288900
			CHANNELS 3 Zrotation Yrotation Xrotation
			JOINT Spine1
			{
				OFFSET 0.000000 1.950000 0.060000
				CHANNELS 3 Zrotation Yrotation Xrotation
				JOINT Neck
				{
					OFFSET 0.000000 0.000000 0.000000
					CHANNELS 3 Zrotation Yrotation Xrotation
					JOINT Neck1
					{
						OFFSET 0.000000 1.600000 0.340000
						CHANNELS 3 Zrotation Yrotation Xrotation
						JOINT Head
						{
							OFFSET 0.000000 1.667000 -0.240000
							CHANNELS 3 Zrotation Yrotation Xrotation
							End Site
							{
								OFFSET 0.000000 0.000000 0.000000
							}
						}
					}
				}
				JOINT LeftShoulder
				{
					OFFSET 0.000000 0.000000 0.000000
					CHANNELS 3 Zrotation Yrotation Xrotation
					JOINT LeftArm
					{
						OFFSET 2.700000 1.550000 -0.730000
						CHANNELS 3 Zrotation Yrotation Xrotation
						JOINT LeftForeArm
						{
							OFFSET 5.450000 0.000000 0.000000
							CHANNELS 3 Zrotation Yrotation Xrotation
							JOINT LeftHand
							{
								OFFSET 3.450000 0.000000 0.000000
								CHANNELS 3 Zrotation Yrotation Xrotation
								JOINT LeftHandIndex1
								{
									OFFSET 0.750000 0.000000 0.000000
									CHANNELS 3 Zrotation Yrotation Xrotation
									End Site
									{
										OFFSET 0.000000 0.000000 0.000000
									}
								}
							}
						}
					}
				}
				JOINT RightShoulder
				{
					OFFSET 0.000000 0.000000 0.000000
					CHANNELS 3 Zrotation Yrotation Xrotation
					JOINT RightArm
					{
						OFFSET -2.700000 1.550000 -0.730000
						CHANNELS 3 Zrotation Yrotation Xrotation
						JOINT RightForeArm
						{
							OFFSET -5.450000 0.000000 0.000000
							CHANNELS 3 Zrotation Yrotation Xrotation
							JOINT RightHand
							{
								OFFSET -3.450000 0.000000 0.000000
								CHANNELS 3 Zrotation Yrotation Xrotation
								JOINT RightHandIndex1
								{
									OFFSET -0.750000 0.000000 0.000000
									CHANNELS 3 Zrotation Yrotation Xrotation
									End Site
									{
										OFFSET 0.000000 0.000000 0.000000
									}
								}
							}
						}
					}
				}
			}
		}
	}
}
MOTION
Frames: 12
Frame Time: 0.016667
-0.159580 17.485570 0.364510 -4.503573 -7.034142 -32.344727 -13.956156 10.736506 2.514892 4.157908 -0.220359 16.580832 -4.198190 5.132968 0.926318 0.418444 5.232807 3.189493 0.165750 0.433200 -0.366420 19.683358 -12.871420 3.105184 -4.010985 -4.756832 20.364156 1.045522 -6.700190 15.927943 -0.863095 -7.601473 1.906470 0.523530 1.002600 0.164240 -7.383965 8.030738 -7.837458 42.239653 -16.435792 39.857220 -35.371184 -3.949900 26.868617 1.531166 -5.572452 -13.717321 -4.569408 0.048922 14.845767 0.990590 -3.909510 2.546540 40.759285 5.383286 3.179860 22.644197 4.979447 -6.774394 47.094768 -1.495341 -2.717554 -5.824791 3.942029 -0.756100 0.726060 -0.618020 0.396430 -41.411214 5.986979 13.746326 -13.719892 -10.156920 -12.371077 -54.726663 -9.488336 -5.099073 5.222362 -3.599848 -0.090900 0.290010 -0.002590 0.460340 
-0.156300 17.480810 0.372950 -4.386105 -6.954624 -32.642692 -13.957299 10.748164 2.530040 4.170683 -0.229599 16.745724 -4.459218 5.201021 1.022385 0.396961 5.288986 3.170088 0.168970 0.432260 -0.354990 19.676429 -12.865345 3.108169 -4.146774 -4.750196 20.810824 1.041198 -6.752354 16.265309 -0.866849 -7.658611 1.885674 0.538700 1.008800 0.155790 -7.372318 8.033316 -7.843373 42.099835 -16.650685 40.353562 -35.375980 -4.113746 26.682887 1.575237 -5.673975 -13.651975 -4.622843 0.042001 14.555599 0.820640 -3.949200 2.371740 40.708867 5.710040 3.047551 22.530415 4.769158 -6.754078 47.199050 -1.061371 -2.660715 -5.848238 3.916319 -0.754260 0.734390 -0.630870 0.385810 -41.464727 5.887287 13.887668 -13.817312 -10.278280 -12.140596 -54.608051 -9.962825 -5.054110 5.229002 -3.601367 -0.107530 0.306150 0.006190 0.447750 
-0.148250 17.474080 0.391250 -4.147879 -7.539694 -32.106650 -13.936390 10.729583 2.476417 4.166951 -0.344440 15.967554 -4.920634 5.236025 1.490065 0.372431 5.227067 3.196092 0.144640 0.398360 -0.368920 19.704199 -12.923001 3.083608 -4.086884 -4.622461 20.378669 0.614837 -6.669334 16.944666 -0.862545 -7.626562 1.898326 0.514830 1.010410 0.144240 -7.457665 8.229683 -7.843231 41.989698 -17.036533 39.468530 -36.306625 -4.493700 26.581089 1.503718 -5.917006 -13.966296 -5.209298 0.833278 14.998782 1.184150 -3.478520 2.517670 40.820751 5.948081 3.516813 21.703365 6.440596 -6.604160 47.834770 -2.152702 -2.681415 -5.831712 3.903501 -0.725220 0.718810 -0.625500 0.384410 -41.538738 6.378322 14.373533 -14.546379 -9.560099 -10.812560 -54.140570 -13.361949 -4.725510 5.362364 -3.595341 -0.125620 0.313530 0.014690 0.442990 
-0.135650 17.467750 0.408640 -3.976533 -8.691356 -31.869585 -13.919889 10.697019 2.480233 4.249397 -0.496531 15.886943 -5.368575 5.227552 1.042555 0.348939 5.254873 3.189437 0.124790 0.365760 -0.376920 19.725523 -12.932587 3.074925 -3.981972 -4.608294 20.355014 0.200082 -6.567591 17.127827 -0.855392 -7.621039 1.899374 0.506670 1.027820 0.138780 -7.549079 8.498994 -7.877914 41.966410 -18.101814 39.384351 -37.690523 -5.417231 25.939860 1.487272 -6.228539 -14.386596 -5.788546 2.004245 14.879414 1.408110 -2.714910 2.668460 41.289109 7.122180 3.775262 20.527542 8.345742 -6.157524 48.471383 -4.186857 -2.806106 -5.854995 3.905929 -0.708420 0.725530 -0.639670 0.373240 -42.280653 6.558302 14.501985 -14.708293 -8.443994 -9.318406 -53.205722 -16.621464 -4.485415 5.494928 -3.611745 -0.151100 0.325860 0.036850 0.429610 
-0.129120 17.461320 0.427370 -3.621189 -9.044994 -32.071130 -13.912766 10.681717 2.536921 3.949547 -0.546372 16.383863 -5.535978 5.219237 0.493966 0.367269 5.306824 3.179051 0.113860 0.349420 -0.384420 19.730735 -12.915495 3.063530 -4.006335 -4.505465 20.512911 0.007242 -6.545127 17.694037 -0.856830 -7.649260 1.895312 0.499860 1.043840 0.134350 -7.583745 8.629201 -7.906232 41.317395 -18.814184 39.928438 -38.265051 -6.353560 25.365672 1.353671 -6.387203 -14.703271 -6.084992 2.931390 14.707580 1.713500 -2.118000 2.830390 41.722085 7.839053 4.031183 19.598295 10.427809 -5.939867 49.070405 -6.170508 -2.937820 -5.891320 3.918581 -0.703370 0.729920 -0.648060 0.374420 -42.747990 6.906816 14.987955 -14.822751 -8.005664 -7.864179 -52.228365 -19.747662 -4.281889 5.688344 -3.635661 -0.163550 0.334730 0.043070 0.428300 
-0.124540 17.457090 0.440610 -3.235746 -9.022268 -32.580190 -13.907977 10.648813 2.620142 3.604796 -0.555331 17.334031 -5.678614 5.234892 -0.120178 0.416173 5.369432 3.140534 0.135190 0.370980 -0.371230 19.733386 -12.898201 3.044584 -3.979685 -4.366534 20.839125 -0.305342 -6.508626 18.805919 -0.880060 -7.692684 1.864409 0.501860 1.014680 0.137030 -7.604618 8.730212 -7.948407 40.617881 -19.380656 41.010807 -38.342592 -7.075627 24.778955 1.118431 -6.503604 -14.908008 -6.290026 3.401101 14.611908 2.210710 -1.966040 2.601260 42.735947 8.493763 4.530557 17.813990 11.537837 -6.166503 49.605954 -6.882430 -2.947511 -5.906260 3.963872 -0.693890 0.700910 -0.628430 0.372860 -43.558242 6.932357 14.783490 -13.834323 -7.908327 -7.559057 -52.533379 -20.273752 -4.245078 5.746694 -3.679783 -0.143810 0.315480 0.031930 0.430690 
-0.121000 17.448730 0.456750 -2.915570 -8.969083 -32.766774 -13.901870 10.644410 2.670626 3.287159 -0.607817 17.656338 -5.614776 5.192500 -0.585524 0.439811 5.375170 3.134119 0.124130 0.353950 -0.373430 19.734842 -12.885563 3.042023 -4.006558 -4.276496 21.164531 -0.523036 -6.496907 19.505979 -0.886111 -7.727695 1.852175 0.486110 1.004800 0.129730 -7.616366 8.823230 -7.985335 39.972483 -19.979801 41.840376 -38.670770 -7.532790 23.817919 1.177912 -6.718102 -15.267643 -6.514784 3.548449 14.675282 2.491800 -1.916440 2.689420 43.518525 9.306835 4.695567 16.683425 11.986694 -6.238218 50.306100 -7.616264 -3.004208 -5.912962 3.971241 -0.684760 0.687390 -0.625860 0.363590 -44.778717 7.232980 14.191995 -11.994987 -7.860851 -7.731419 -52.988916 -19.829960 -4.159025 5.738371 -3.679196 -0.144090 0.309080 0.035380 0.427980 
-0.119250 17.439660 0.472930 -2.597515 -9.180155 -32.613323 -13.888711 10.619597 2.693724 3.011599 -0.647811 17.693144 -5.554444 5.130478 -1.022776 0.434257 5.380461 3.141145 0.089760 0.313440 -0.401960 19.749646 -12.899681 3.023692 -4.060507 -4.144223 21.006854 -0.725816 -6.460948 20.010459 -0.876378 -7.733048 1.855837 0.466550 1.032720 0.123600 -7.664023 8.974030 -8.012836 39.442484 -20.365687 42.008774 -39.044233 -7.959587 23.122448 1.162552 -6.888703 -15.498511 -6.759922 3.983021 14.755300 2.734090 -1.677150 2.868890 43.574116 9.651999 4.676994 16.680866 12.477757 -6.070579 50.537579 -7.629537 -2.879137 -5.929117 3.933049 -0.675200 0.694660 -0.639210 0.359820 -45.050487 7.505286 14.296568 -11.837199 -7.832495 -7.163487 -52.544918 -20.882863 -3.978947 5.816320 -3.648840 -0.165280 0.329220 0.061960 0.428590 
-0.116050 17.423700 0.490350 -2.164835 -9.737289 -32.332480 -13.883978 10.634757 2.730855 2.604783 -0.662873 17.606178 -5.438855 5.073756 -1.250371 0.434838 5.379082 3.146780 0.082850 0.315270 -0.414460 19.747203 -12.914849 2.995429 -4.309586 -3.908322 20.649494 -0.804902 -6.404039 20.468287 -0.841007 -7.745636 1.859407 0.478090 1.062830 0.133270 -7.681745 9.131540 -8.062159 38.739428 -20.699277 42.927636 -39.259373 -8.229183 21.593283 1.203815 -6.822650 -15.633558 -6.601474 4.145886 14.256709 2.475570 -1.458770 3.226240 43.831138 11.562980 3.811642 16.799777 10.783099 -5.377125 50.635384 -7.766991 -2.839445 -5.941908 3.948685 -0.714810 0.733340 -0.666180 0.358780 -45.738759 6.764963 13.096757 -11.274948 -6.383324 -7.030394 -53.129225 -20.214060 -4.033586 5.594757 -3.668769 -0.163540 0.329840 0.071570 0.435420 
-0.115110 17.424240 0.503650 -2.001735 -10.184962 -31.764734 -13.877041 10.611446 2.727828 2.435251 -0.740470 17.369761 -5.422395 5.006537 -1.483465 0.425491 5.355139 3.160678 0.093620 0.329760 -0.409880 19.764989 -12.928992 2.954435 -4.059470 -3.710177 19.750811 -1.120902 -6.215370 21.046030 -0.819553 -7.684556 1.870194 0.493850 1.075040 0.135000 -7.733979 9.297374 -8.103038 38.270425 -21.383497 42.857892 -39.858778 -9.019350 20.674485 1.102870 -6.810519 -15.898739 -6.703339 4.936115 13.987344 2.746210 -0.935430 3.300840 44.387866 12.553783 3.674198 16.132579 11.128138 -5.089039 51.047344 -8.599766 -2.804317 -5.945580 3.955422 -0.719560 0.738170 -0.667660 0.368200 -46.438473 6.745199 12.398610 -11.250074 -4.824564 -5.862848 -52.995436 -22.131443 -3.929421 5.539662 -3.730083 -0.168530 0.337530 0.064940 0.439790 
-0.110610 17.423080 0.513030 -1.950704 -10.237046 -31.619916 -13.875511 10.579280 2.751690 2.298833 -0.762962 17.618657 -5.419452 4.989275 -1.747801 0.439143 5.348944 3.151040 0.116510 0.354720 -0.393280 19.771763 -12.933082 2.935634 -3.964791 -3.685975 19.420261 -1.175914 -6.152020 21.171292 -0.819700 -7.633086 1.887779 0.499330 1.048440 0.125520 -7.753351 9.377548 -8.142098 38.325048 -21.828426 43.122681 -40.144629 -9.130064 20.067497 1.041020 -6.836125 -16.120079 -6.786740 4.919373 14.137959 3.066640 -1.088080 2.982860 45.231833 13.031438 3.917355 14.993256 10.748875 -5.303593 51.303949 -7.984018 -2.639522 -5.930175 3.952988 -0.704390 0.712490 -0.649790 0.369740 -47.314877 6.632624 11.436579 -9.814959 -4.489055 -7.135903 -54.408149 -20.276259 -3.914128 5.294701 -3.691462 -0.157460 0.336810 0.051220 0.437630 
-0.106470 17.422550 0.528390 -1.793533 -10.431105 -31.434992 -13.868774 10.560607 2.767355 2.060478 -0.754735 17.907206 -5.371233 4.998009 -1.777693 0.455919 5.367705 3.148194 0.097460 0.330460 -0.406400 19.780022 -12.944617 2.917292 -4.097192 -3.595504 19.129519 -1.222336 -6.116720 21.262570 -0.809985 -7.603367 1.902013 0.480480 1.055800 0.119530 -7.780383 9.467710 -8.151469 38.465579 -22.028397 42.817725 -40.640645 -9.157275 19.895138 1.115556 -6.979799 -16.371316 -6.938095 4.995408 14.403905 3.356950 -1.136920 3.064880 45.362047 12.965957 4.095754 14.911364 11.259482 -5.349673 51.293967 -7.977914 -2.554644 -5.935368 3.927850 -0.694770 0.705940 -0.650360 0.366820 -47.649831 7.236961 11.514923 -9.217324 -4.902857 -7.195007 -54.244471 -20.721833 -3.710970 5.339029 -3.652589 -0.163650 0.344800 0.061250 0.440440 
